<svg width="25" height="27" viewBox="0 0 25 27" fill="none" xmlns="http://www.w3.org/2000/svg">
<g clip-path="url(#clip0_81_326)">
<path d="M12.5 0.703003C5.81016 0.703003 0.390625 6.4507 0.390625 13.5438C0.390625 20.6369 5.81094 26.3846 12.5 26.3846C19.1898 26.3846 24.6094 20.6369 24.6094 13.5438C24.6094 6.4507 19.1891 0.703003 12.5 0.703003ZM18.4477 9.50018L16.4602 19.4315C16.3133 20.1357 15.918 20.3063 15.3664 19.9749L12.3391 17.6089L10.8789 19.1001C10.718 19.2708 10.5813 19.4157 10.2688 19.4157L10.4836 16.1484L16.0938 10.7735C16.3383 10.5457 16.0398 10.4164 15.7172 10.6442L8.78359 15.2727L5.79531 14.2836C5.14609 14.0665 5.13125 13.5951 5.93203 13.2638L17.607 8.48948C18.1492 8.28237 18.6227 8.62949 18.4469 9.49935L18.4477 9.50018Z" fill="black"/>
</g>
<defs>
<clipPath id="clip0_81_326">
<rect width="25" height="26.51" fill="white" transform="translate(0 0.288818)"/>
</clipPath>
</defs>
</svg>
