<svg width="20" height="20" viewBox="0 0 20 20" fill="none" xmlns="http://www.w3.org/2000/svg">
<path d="M13.7185 14.8489C14.0309 15.1613 14.5374 15.1613 14.8498 14.8489C15.1623 14.5365 15.1623 14.0299 14.8498 13.7175L6.08172 4.94939C5.7693 4.63697 5.26277 4.63698 4.95035 4.94939C4.63793 5.26181 4.63793 5.76834 4.95035 6.08076L13.7185 14.8489Z" fill="black"/>
<path d="M4.94994 13.718C4.63752 14.0304 4.63752 14.5369 4.94994 14.8494C5.26236 15.1618 5.76889 15.1618 6.08131 14.8494L14.8494 6.08123C15.1619 5.76881 15.1619 5.26228 14.8494 4.94986C14.537 4.63744 14.0305 4.63744 13.7181 4.94986L4.94994 13.718Z" fill="black"/>
</svg>
